<?xml version="1.0" standalone="no"?><!DOCTYPE svg PUBLIC "-//W3C//DTD SVG 1.1//EN" "http://www.w3.org/Graphics/SVG/1.1/DTD/svg11.dtd"><svg xmlns:xlink="http://www.w3.org/1999/xlink" version="1.1" class="highcharts-root" style="font-family:&quot;Lucida Grande&quot;, &quot;Lucida Sans Unicode&quot;, Arial, Helvetica, sans-serif;font-size:12px;" xmlns="http://www.w3.org/2000/svg" width="600" height="400" viewBox="0 0 600 400"><desc>Created with Highcharts 7.0.3</desc><defs><clipPath id="highcharts-8h1lf2i-48"><rect x="0" y="0" width="345" height="306" fill="none"></rect></clipPath></defs><rect fill="#ffffff" class="highcharts-background" x="0" y="0" width="600" height="400" rx="0" ry="0"></rect><rect fill="none" class="highcharts-plot-background" x="75" y="59" width="345" height="306"></rect><g class="highcharts-grid highcharts-xaxis-grid " data-z-index="1"><path fill="none" data-z-index="1" class="highcharts-grid-line" d="M 77.5 59 L 77.5 365" opacity="1"></path><path fill="none" data-z-index="1" class="highcharts-grid-line" d="M 174.5 59 L 174.5 365" opacity="1"></path><path fill="none" data-z-index="1" class="highcharts-grid-line" d="M 271.5 59 L 271.5 365" opacity="1"></path><path fill="none" data-z-index="1" class="highcharts-grid-line" d="M 367.5 59 L 367.5 365" opacity="1"></path></g><g class="highcharts-grid highcharts-yaxis-grid " data-z-index="1"><path fill="none" stroke="#e6e6e6" stroke-width="1" data-z-index="1" class="highcharts-grid-line" d="M 75 365.5 L 420 365.5" opacity="1"></path><path fill="none" stroke="#e6e6e6" stroke-width="1" data-z-index="1" class="highcharts-grid-line" d="M 75 289.5 L 420 289.5" opacity="1"></path><path fill="none" stroke="#e6e6e6" stroke-width="1" data-z-index="1" class="highcharts-grid-line" d="M 75 212.5 L 420 212.5" opacity="1"></path><path fill="none" stroke="#e6e6e6" stroke-width="1" data-z-index="1" class="highcharts-grid-line" d="M 75 136.5 L 420 136.5" opacity="1"></path><path fill="none" stroke="#e6e6e6" stroke-width="1" data-z-index="1" class="highcharts-grid-line" d="M 75 58.5 L 420 58.5" opacity="1"></path></g><rect fill="none" class="highcharts-plot-border" data-z-index="1" x="75" y="59" width="345" height="306"></rect><g class="highcharts-axis highcharts-xaxis " data-z-index="2"><path fill="none" class="highcharts-tick" stroke="#ccd6eb" stroke-width="1" d="M 77.5 365 L 77.5 375" opacity="1"></path><path fill="none" class="highcharts-tick" stroke="#ccd6eb" stroke-width="1" d="M 174.5 365 L 174.5 375" opacity="1"></path><path fill="none" class="highcharts-tick" stroke="#ccd6eb" stroke-width="1" d="M 271.5 365 L 271.5 375" opacity="1"></path><path fill="none" class="highcharts-tick" stroke="#ccd6eb" stroke-width="1" d="M 367.5 365 L 367.5 375" opacity="1"></path><path fill="none" class="highcharts-axis-line" stroke="#ccd6eb" stroke-width="1" data-z-index="7" d="M 75 365.5 L 420 365.5"></path></g><g class="highcharts-axis highcharts-yaxis " data-z-index="2"><text x="23.65625" data-z-index="7" text-anchor="middle" transform="translate(0,0) rotate(270 23.65625 212)" class="highcharts-axis-title" style="color:#666666;fill:#666666;" y="212"><tspan>Number of Employees</tspan></text><path fill="none" class="highcharts-axis-line" data-z-index="7" d="M 75 59 L 75 365"></path></g><g class="highcharts-series-group" data-z-index="3"><g data-z-index="0.1" class="highcharts-series highcharts-series-0 highcharts-line-series highcharts-color-0 " transform="translate(75,59) scale(1 1)" clip-path="url(#highcharts-8h1lf2i-48)"><path fill="none" d="M 3.3823529411735 238.78098 L 51.701680672267 225.67041 L 100.02100840336 218.51919 L 148.34033613445 199.42326000000003 L 196.65966386555 157.54257 L 244.97899159664 122.50557 L 293.29831932773 96.18651000000003 L 341.61764705883 70.11225000000002" class="highcharts-graph" data-z-index="1" stroke="#7cb5ec" stroke-width="2" stroke-linejoin="round" stroke-linecap="round"></path></g><g data-z-index="0.1" class="highcharts-markers highcharts-series-0 highcharts-line-series highcharts-color-0 " transform="translate(75,59) scale(1 1)" clip-path="none"><path fill="#7cb5ec" d="M 7 239 A 4 4 0 1 1 6.999998000000167 238.99600000066667 Z" class="highcharts-point highcharts-color-0"></path><path fill="#7cb5ec" d="M 55 226 A 4 4 0 1 1 54.99999800000017 225.99600000066667 Z" class="highcharts-point highcharts-color-0"></path><path fill="#7cb5ec" d="M 104 219 A 4 4 0 1 1 103.99999800000016 218.99600000066667 Z" class="highcharts-point highcharts-color-0"></path><path fill="#7cb5ec" d="M 152 199 A 4 4 0 1 1 151.99999800000018 198.99600000066667 Z" class="highcharts-point highcharts-color-0"></path><path fill="#7cb5ec" d="M 200 158 A 4 4 0 1 1 199.99999800000018 157.99600000066667 Z" class="highcharts-point highcharts-color-0"></path><path fill="#7cb5ec" d="M 248 123 A 4 4 0 1 1 247.99999800000018 122.99600000066667 Z" class="highcharts-point highcharts-color-0"></path><path fill="#7cb5ec" d="M 297 96 A 4 4 0 1 1 296.9999980000002 95.99600000066667 Z" class="highcharts-point highcharts-color-0"></path><path fill="#7cb5ec" d="M 345 70 A 4 4 0 1 1 344.9999980000002 69.99600000066667 Z" class="highcharts-point highcharts-color-0"></path></g><g data-z-index="0.1" class="highcharts-series highcharts-series-1 highcharts-line-series highcharts-color-1 " transform="translate(75,59) scale(1 1)" clip-path="url(#highcharts-8h1lf2i-48)"><path fill="none" d="M 3.3823529411735 267.87852 L 51.701680672267 269.18208 L 100.02100840336 260.49474 L 148.34033613445 260.32797 L 196.65966386555 256.2903 L 244.97899159664 259.66854 L 293.29831932773 247.67487 L 341.61764705883 244.13598000000002" class="highcharts-graph" data-z-index="1" stroke="#434348" stroke-width="2" stroke-linejoin="round" stroke-linecap="round"></path></g><g data-z-index="0.1" class="highcharts-markers highcharts-series-1 highcharts-line-series highcharts-color-1 " transform="translate(75,59) scale(1 1)" clip-path="none"><path fill="#434348" d="M 3 264 L 7 268 3 272 -1 268 Z" class="highcharts-point highcharts-color-1"></path><path fill="#434348" d="M 51 265 L 55 269 51 273 47 269 Z" class="highcharts-point highcharts-color-1"></path><path fill="#434348" d="M 100 256 L 104 260 100 264 96 260 Z" class="highcharts-point highcharts-color-1"></path><path fill="#434348" d="M 148 256 L 152 260 148 264 144 260 Z" class="highcharts-point highcharts-color-1"></path><path fill="#434348" d="M 196 252 L 200 256 196 260 192 256 Z" class="highcharts-point highcharts-color-1"></path><path fill="#434348" d="M 244 256 L 248 260 244 264 240 260 Z" class="highcharts-point highcharts-color-1"></path><path fill="#434348" d="M 293 244 L 297 248 293 252 289 248 Z" class="highcharts-point highcharts-color-1"></path><path fill="#434348" d="M 341 240 L 345 244 341 248 337 244 Z" class="highcharts-point highcharts-color-1"></path></g><g data-z-index="0.1" class="highcharts-series highcharts-series-2 highcharts-line-series highcharts-color-2 " transform="translate(75,59) scale(1 1)" clip-path="url(#highcharts-8h1lf2i-48)"><path fill="none" d="M 3.3823529411735 288.03168 L 51.701680672267 278.88534 L 100.02100840336 281.51235 L 148.34033613445 275.75037 L 196.65966386555 275.11695 L 244.97899159664 268.70319 L 293.29831932773 256.81509 L 341.61764705883 245.73789" class="highcharts-graph" data-z-index="1" stroke="#90ed7d" stroke-width="2" stroke-linejoin="round" stroke-linecap="round"></path></g><g data-z-index="0.1" class="highcharts-markers highcharts-series-2 highcharts-line-series highcharts-color-2 " transform="translate(75,59) scale(1 1)" clip-path="none"><path fill="#90ed7d" d="M -1 284 L 7 284 7 292 -1 292 Z" class="highcharts-point highcharts-color-2"></path><path fill="#90ed7d" d="M 47 275 L 55 275 55 283 47 283 Z" class="highcharts-point highcharts-color-2"></path><path fill="#90ed7d" d="M 96 278 L 104 278 104 286 96 286 Z" class="highcharts-point highcharts-color-2"></path><path fill="#90ed7d" d="M 144 272 L 152 272 152 280 144 280 Z" class="highcharts-point highcharts-color-2"></path><path fill="#90ed7d" d="M 192 271 L 200 271 200 279 192 279 Z" class="highcharts-point highcharts-color-2"></path><path fill="#90ed7d" d="M 240 265 L 248 265 248 273 240 273 Z" class="highcharts-point highcharts-color-2"></path><path fill="#90ed7d" d="M 289 253 L 297 253 297 261 289 261 Z" class="highcharts-point highcharts-color-2"></path><path fill="#90ed7d" d="M 337 242 L 345 242 345 250 337 250 Z" class="highcharts-point highcharts-color-2"></path></g><g data-z-index="0.1" class="highcharts-series highcharts-series-3 highcharts-line-series highcharts-color-3 " transform="translate(75,59) scale(1 1)" clip-path="url(#highcharts-8h1lf2i-48)"><path fill="none" d="M 100.02100840336 293.77836 L 148.34033613445 287.38143 L 196.65966386555 282.87864 L 244.97899159664 271.64844 L 293.29831932773 253.368 L 341.61764705883 253.63269" class="highcharts-graph" data-z-index="1" stroke="#f7a35c" stroke-width="2" stroke-linejoin="round" stroke-linecap="round"></path></g><g data-z-index="0.1" class="highcharts-markers highcharts-series-3 highcharts-line-series highcharts-color-3 " transform="translate(75,59) scale(1 1)" clip-path="none"><path fill="#f7a35c" d="M 100 290 L 104 298 96 298 Z" class="highcharts-point highcharts-color-3"></path><path fill="#f7a35c" d="M 148 283 L 152 291 144 291 Z" class="highcharts-point highcharts-color-3"></path><path fill="#f7a35c" d="M 196 279 L 200 287 192 287 Z" class="highcharts-point highcharts-color-3"></path><path fill="#f7a35c" d="M 244 268 L 248 276 240 276 Z" class="highcharts-point highcharts-color-3"></path><path fill="#f7a35c" d="M 293 249 L 297 257 289 257 Z" class="highcharts-point highcharts-color-3"></path><path fill="#f7a35c" d="M 341 250 L 345 258 337 258 Z" class="highcharts-point highcharts-color-3"></path></g><g data-z-index="0.1" class="highcharts-series highcharts-series-4 highcharts-line-series highcharts-color-4 " transform="translate(75,59) scale(1 1)" clip-path="url(#highcharts-8h1lf2i-48)"><path fill="none" d="M 3.3823529411735 286.25076 L 51.701680672267 296.89956 L 100.02100840336 293.59935 L 148.34033613445 288.79056 L 196.65966386555 292.24683 L 244.97899159664 287.92152 L 293.29831932773 278.04078 L 341.61764705883 278.29017" class="highcharts-graph" data-z-index="1" stroke="#8085e9" stroke-width="2" stroke-linejoin="round" stroke-linecap="round"></path></g><g data-z-index="0.1" class="highcharts-markers highcharts-series-4 highcharts-line-series highcharts-color-4 " transform="translate(75,59) scale(1 1)" clip-path="none"><path fill="#8085e9" d="M -1 282 L 7 282 3 290 Z" class="highcharts-point highcharts-color-4"></path><path fill="#8085e9" d="M 47 293 L 55 293 51 301 Z" class="highcharts-point highcharts-color-4"></path><path fill="#8085e9" d="M 96 290 L 104 290 100 298 Z" class="highcharts-point highcharts-color-4"></path><path fill="#8085e9" d="M 144 285 L 152 285 148 293 Z" class="highcharts-point highcharts-color-4"></path><path fill="#8085e9" d="M 192 288 L 200 288 196 296 Z" class="highcharts-point highcharts-color-4"></path><path fill="#8085e9" d="M 240 284 L 248 284 244 292 Z" class="highcharts-point highcharts-color-4"></path><path fill="#8085e9" d="M 289 274 L 297 274 293 282 Z" class="highcharts-point highcharts-color-4"></path><path fill="#8085e9" d="M 337 274 L 345 274 341 282 Z" class="highcharts-point highcharts-color-4"></path></g></g><g class="highcharts-label highcharts-series-label highcharts-series-label-0 " opacity="1" data-z-index="3" transform="translate(349,112)"><path fill="none" class="highcharts-label-box" d="M 0 0" stroke="#7cb5ec" stroke-width="1"></path><text x="0" data-z-index="1" style="font-weight:bold;color:#7cb5ec;fill:#7cb5ec;" y="12">Installation</text></g><g class="highcharts-label highcharts-series-label highcharts-series-label-1 " opacity="1" data-z-index="3" transform="translate(136,302)"><path fill="none" class="highcharts-label-box" d="M 0 0" stroke="#434348" stroke-width="1"></path><text x="0" data-z-index="1" style="font-weight:bold;color:#434348;fill:#434348;" y="12">Manufacturing</text></g><g class="highcharts-label highcharts-series-label highcharts-series-label-2 " opacity="1" data-z-index="3" transform="translate(298,288)"><path fill="none" class="highcharts-label-box" d="M 0 0" stroke="#90ed7d" stroke-width="1"></path><text x="0" data-z-index="1" style="font-weight:bold;color:#90ed7d;fill:#90ed7d;" y="12"><tspan>Sales &amp; Distribution</tspan></text></g><g class="highcharts-label highcharts-series-label highcharts-series-label-4 " opacity="1" data-z-index="3" transform="translate(380,340)"><path fill="none" class="highcharts-label-box" d="M 0 0" stroke="#8085e9" stroke-width="1"></path><text x="0" data-z-index="1" style="font-weight:bold;color:#8085e9;fill:#8085e9;" y="12">Other</text></g><text x="300" text-anchor="middle" class="highcharts-title" data-z-index="4" style="color:#333333;font-size:18px;fill:#333333;" y="24"><tspan>Solar Employment Growth by Sector, 2010-2016</tspan></text><text x="300" text-anchor="middle" class="highcharts-subtitle" data-z-index="4" style="color:#666666;fill:#666666;" y="44"><tspan>Source: thesolarfoundation.com</tspan></text><g class="highcharts-legend" data-z-index="7" transform="translate(432,157)"><rect fill="none" class="highcharts-legend-box" rx="0" ry="0" x="0" y="0" width="158" height="81" visibility="visible"></rect><g data-z-index="1"><g><g class="highcharts-legend-item highcharts-line-series highcharts-color-0 highcharts-series-0" data-z-index="1" transform="translate(8,3)"><path fill="none" d="M 0 11 L 16 11" class="highcharts-graph" stroke="#7cb5ec" stroke-width="2"></path><path fill="#7cb5ec" d="M 12 11 A 4 4 0 1 1 11.999998000000167 10.996000000666664 Z" class="highcharts-point"></path><text x="21" style="color:#333333;cursor:pointer;font-size:12px;font-weight:bold;fill:#333333;" text-anchor="start" data-z-index="2" y="15"><tspan>Installation</tspan></text></g><g class="highcharts-legend-item highcharts-line-series highcharts-color-1 highcharts-series-1" data-z-index="1" transform="translate(8,17)"><path fill="none" d="M 0 11 L 16 11" class="highcharts-graph" stroke="#434348" stroke-width="2"></path><path fill="#434348" d="M 8 7 L 12 11 8 15 4 11 Z" class="highcharts-point"></path><text x="21" y="15" style="color:#333333;cursor:pointer;font-size:12px;font-weight:bold;fill:#333333;" text-anchor="start" data-z-index="2"><tspan>Manufacturing</tspan></text></g><g class="highcharts-legend-item highcharts-line-series highcharts-color-2 highcharts-series-2" data-z-index="1" transform="translate(8,31)"><path fill="none" d="M 0 11 L 16 11" class="highcharts-graph" stroke="#90ed7d" stroke-width="2"></path><path fill="#90ed7d" d="M 4 7 L 12 7 12 15 4 15 Z" class="highcharts-point"></path><text x="21" y="15" style="color:#333333;cursor:pointer;font-size:12px;font-weight:bold;fill:#333333;" text-anchor="start" data-z-index="2"><tspan>Sales &amp; Distribution</tspan></text></g><g class="highcharts-legend-item highcharts-line-series highcharts-color-3 highcharts-series-3" data-z-index="1" transform="translate(8,45)"><path fill="none" d="M 0 11 L 16 11" class="highcharts-graph" stroke="#f7a35c" stroke-width="2"></path><path fill="#f7a35c" d="M 8 7 L 12 15 4 15 Z" class="highcharts-point"></path><text x="21" y="15" style="color:#333333;cursor:pointer;font-size:12px;font-weight:bold;fill:#333333;" text-anchor="start" data-z-index="2"><tspan>Project Development</tspan></text></g><g class="highcharts-legend-item highcharts-line-series highcharts-color-4 highcharts-series-4" data-z-index="1" transform="translate(8,59)"><path fill="none" d="M 0 11 L 16 11" class="highcharts-graph" stroke="#8085e9" stroke-width="2"></path><path fill="#8085e9" d="M 4 7 L 12 7 8 15 Z" class="highcharts-point"></path><text x="21" y="15" style="color:#333333;cursor:pointer;font-size:12px;font-weight:bold;fill:#333333;" text-anchor="start" data-z-index="2"><tspan>Other</tspan></text></g></g></g></g><g class="highcharts-axis-labels highcharts-xaxis-labels " data-z-index="7"><text x="78.382352941173" style="color:#666666;cursor:default;font-size:11px;fill:#666666;" text-anchor="middle" transform="translate(0,0)" y="384" opacity="1">2010</text><text x="175.02100840336" style="color:#666666;cursor:default;font-size:11px;fill:#666666;" text-anchor="middle" transform="translate(0,0)" y="384" opacity="1">2012</text><text x="271.65966386555" style="color:#666666;cursor:default;font-size:11px;fill:#666666;" text-anchor="middle" transform="translate(0,0)" y="384" opacity="1">2014</text><text x="368.29831932773" style="color:#666666;cursor:default;font-size:11px;fill:#666666;" text-anchor="middle" transform="translate(0,0)" y="384" opacity="1">2016</text></g><g class="highcharts-axis-labels highcharts-yaxis-labels " data-z-index="7"><text x="60" style="color:#666666;cursor:default;font-size:11px;fill:#666666;" text-anchor="end" transform="translate(0,0)" y="370" opacity="1">0</text><text x="60" style="color:#666666;cursor:default;font-size:11px;fill:#666666;" text-anchor="end" transform="translate(0,0)" y="294" opacity="1">50k</text><text x="60" style="color:#666666;cursor:default;font-size:11px;fill:#666666;" text-anchor="end" transform="translate(0,0)" y="217" opacity="1">100k</text><text x="60" style="color:#666666;cursor:default;font-size:11px;fill:#666666;" text-anchor="end" transform="translate(0,0)" y="141" opacity="1">150k</text><text x="60" style="color:#666666;cursor:default;font-size:11px;fill:#666666;" text-anchor="end" transform="translate(0,0)" y="64" opacity="1">200k</text></g><text x="590" class="highcharts-credits" text-anchor="end" data-z-index="8" style="cursor:pointer;color:#999999;font-size:9px;fill:#999999;" y="395">Highcharts.com</text></svg>